<svg xmlns="http://www.w3.org/2000/svg" version="1.1" xmlns:xlink="http://www.w3.org/1999/xlink" xmlns:svgjs="http://svgjs.dev/svgjs" width="1000" height="575" viewBox="0 0 1000 575"><g transform="matrix(1,0,0,1,-0.6060606060606233,0.15460526315786183)"><svg viewBox="0 0 396 228" data-background-color="#ffffff" preserveAspectRatio="xMidYMid meet" height="575" width="1000" xmlns="http://www.w3.org/2000/svg" xmlns:xlink="http://www.w3.org/1999/xlink"><g id="tight-bounds" transform="matrix(1,0,0,1,0.2400000000000091,-0.06130434782608063)"><svg viewBox="0 0 395.52 228.12260869565216" height="228.12260869565216" width="395.52"><g><svg viewBox="0 0 395.52 228.12260869565216" height="228.12260869565216" width="395.52"><g><svg viewBox="0 0 395.52 228.12260869565216" height="228.12260869565216" width="395.52"><g id="textblocktransform"><svg viewBox="0 0 395.52 228.12260869565216" height="228.12260869565216" width="395.52" id="textblock"><g><svg viewBox="0 0 395.52 228.12260869565216" height="228.12260869565216" width="395.52"><g transform="matrix(1,0,0,1,0,0)"><svg width="395.52" viewBox="2.25 -36.5 73.6 42.45" height="228.12260869565216" data-palette-color="#a437db"><path d="M12.3 5.95L12.3 5.95 4.55 5.95Q3.35 5.95 2.8 5.4 2.25 4.85 2.25 3.65L2.25 3.65 2.25-28.75Q2.25-29.4 2.43-29.85 2.6-30.3 2.95-30.6L2.95-30.6 9.4-36.05Q9.65-36.25 10.08-36.38 10.5-36.5 11-36.5L11-36.5 26.3-36.5Q29.85-36.5 32.25-35.75 34.65-35 36.05-33.65 37.45-32.3 38.02-30.4 38.6-28.5 38.6-26.25L38.6-26.25 38.6-19.85Q38.6-17.45 37.93-15.48 37.25-13.5 35.6-12.1L35.6-12.1 29.1-6.7Q27.85-5.65 25.88-4.98 23.9-4.3 21.05-4.2L21.05-4.2 21.05-1.8Q21.05-1.15 20.88-0.7 20.7-0.25 20.35 0.05L20.35 0.05 13.85 5.45Q13.65 5.65 13.23 5.8 12.8 5.95 12.3 5.95ZM11 0L18.75 0Q19.7 0 20.13-0.43 20.55-0.85 20.55-1.8L20.55-1.8 20.55-10.1 26.3-10.1Q33.1-10.1 35.6-12.8 38.1-15.5 38.1-19.85L38.1-19.85 38.1-26.25Q38.1-30.6 35.6-33.3 33.1-36 26.3-36L26.3-36 11-36Q10.05-36 9.63-35.58 9.2-35.15 9.2-34.2L9.2-34.2 9.2-1.8Q9.2-0.85 9.63-0.43 10.05 0 11 0L11 0ZM25.6-14.35L25.6-14.35 15.3-14.35 15.3-4.5 14.8-4.5 14.8-31.5 25.6-31.5Q27.95-31.5 29.43-30.98 30.9-30.45 31.7-29.55 32.5-28.65 32.8-27.4 33.1-26.15 33.1-24.7L33.1-24.7 33.1-21Q33.1-19.55 32.8-18.32 32.5-17.1 31.7-16.23 30.9-15.35 29.43-14.85 27.95-14.35 25.6-14.35ZM15.3-31L15.3-14.85 25.6-14.85Q27.8-14.85 29.18-15.3 30.55-15.75 31.3-16.57 32.05-17.4 32.33-18.53 32.6-19.65 32.6-21L32.6-21 32.6-24.7Q32.6-26.05 32.33-27.2 32.05-28.35 31.3-29.2 30.55-30.05 29.18-30.53 27.8-31 25.6-31L25.6-31 15.3-31ZM20.45-19.1L20.45-26.65 24.95-26.65Q26.4-26.65 26.85-25.9 27.3-25.15 27.3-24.2L27.3-24.2 27.3-21.55Q27.3-20.6 26.85-19.85 26.4-19.1 24.95-19.1L24.95-19.1 20.45-19.1ZM58.55 5.95L42.75 5.95Q41.55 5.95 41 5.4 40.45 4.85 40.45 3.65L40.45 3.65 40.45-2.2Q40.45-2.85 40.62-3.3 40.8-3.75 41.15-4.05L41.15-4.05 46.15-8.25Q43.5-9.05 41.97-10.98 40.45-12.9 40.45-16.5L40.45-16.5 40.45-21.75Q40.45-24 41.2-25.75 41.95-27.5 43.35-28.7L43.35-28.7 49.85-34.15Q51.2-35.25 53.2-35.88 55.2-36.5 57.75-36.5L57.75-36.5 71.75-36.5Q72.95-36.5 73.5-35.95 74.05-35.4 74.05-34.2L74.05-34.2 74.05-28.25Q74.05-27.6 73.87-27.15 73.7-26.7 73.35-26.4L73.35-26.4 68.85-22.65Q72-21.95 73.92-20.03 75.85-18.1 75.85-14.05L75.85-14.05 75.85-8.8Q75.85-6.55 75.1-4.8 74.35-3.05 72.9-1.85L72.9-1.85 66.45 3.55Q65.05 4.7 63.05 5.33 61.05 5.95 58.55 5.95L58.55 5.95ZM49.2 0L65 0Q69.8 0 72.57-2.27 75.35-4.55 75.35-8.8L75.35-8.8 75.35-14.05Q75.35-18.25 73.2-20.05 71.05-21.85 67.55-22.35L67.55-22.35 60.1-23.35Q59.45-23.4 59.1-23.85 58.75-24.3 58.75-24.95L58.75-24.95Q58.75-25.6 59.1-26.03 59.45-26.45 60.1-26.45L60.1-26.45 71.75-26.45Q72.7-26.45 73.12-26.88 73.55-27.3 73.55-28.25L73.55-28.25 73.55-34.2Q73.55-35.15 73.12-35.58 72.7-36 71.75-36L71.75-36 57.75-36Q52.9-36 50.15-33.73 47.4-31.45 47.4-27.2L47.4-27.2 47.4-21.95Q47.4-17.75 49.52-15.95 51.65-14.15 55.15-13.65L55.15-13.65 62.65-12.6Q63.3-12.55 63.62-12.15 63.95-11.75 63.95-10.9L63.95-10.9Q63.95-10.3 63.62-9.88 63.3-9.45 62.65-9.45L62.65-9.45 49.2-9.45Q48.25-9.45 47.82-9.03 47.4-8.6 47.4-7.65L47.4-7.65 47.4-1.8Q47.4-0.85 47.82-0.43 48.25 0 49.2 0L49.2 0ZM57.95-31.5L69.05-31.5 69.05-31 57.95-31Q55.85-31 54.6-29.85 53.35-28.7 53.35-26.95L53.35-26.95 53.35-22.85Q53.35-21.1 54.05-20.4 54.75-19.7 55.9-19.5L55.9-19.5 66.45-17.35Q67.95-17.05 68.92-16.05 69.9-15.05 69.9-12.45L69.9-12.45 69.9-9.55Q69.9-7.35 68.4-5.93 66.9-4.5 64.35-4.5L64.35-4.5 51.9-4.5 51.9-5 64.35-5Q66.65-5 68.02-6.28 69.4-7.55 69.4-9.55L69.4-9.55 69.4-12.45Q69.4-14.8 68.57-15.68 67.75-16.55 66.35-16.85L66.35-16.85 55.8-19Q54.5-19.25 53.67-20.03 52.85-20.8 52.85-22.85L52.85-22.85 52.85-26.95Q52.85-28.95 54.25-30.23 55.65-31.5 57.95-31.5L57.95-31.5Z" opacity="1" transform="matrix(1,0,0,1,0,0)" fill="#a437db" class="wordmark-text-0" data-fill-palette-color="primary" id="text-0"></path></svg></g></svg></g></svg></g></svg></g><g></g></svg></g><defs></defs></svg><rect width="395.52" height="228.12260869565216" fill="none" stroke="none" visibility="hidden"></rect></g></svg></g></svg>